# xmcd
#
# Track frame offsets:
#	150
#	13758
#	27091
#	40758
#	54184
#	65758
#	79410
#	91841
#	105356
#	117743
#	130395
#	143317
#	156925
#	170233
#	185871
#	199758
#
# Disc length: 2838 seconds
#
# Revision: 0
# Processed by: cddbd v1.5.1PL2 Copyright (c) Steve Scherf et al.
# Submitted via: audiograbber 1.80
#
DISCID=dd0b1410
DTITLE=Various Artist - Grand Prix des volkstümlichen Schlagers - Vorausscheidung Schw
DTITLE=eiz 2002
DYEAR=1900
DGENRE=
TTITLE0=Calimeros - Biongiorno amore
TTITLE1=Paloma - Es fing mit einem Lächeln an
TTITLE2=Roman Peters - Vieles hat der Himmel schon erfunden
TTITLE3=Premiere - Ich folge meiner Sehnsucht
TTITLE4=Maria da Vinci - Warum sagst Du mir nie "Ich liebe dich"
TTITLE5=Leonardo - Gigolo Romantico
TTITLE6=Claudia - Lass uns tanzen
TTITLE7=Stefan Roos - Santa Monica
TTITLE8=Marcel Schweizer - Zu zweit
TTITLE9=Säntisfeger - Suchst Du die Zufriedenheit
TTITLE10=Emanuel - Schönes Mädchen aus Chalkidiki
TTITLE11=ComBox - Darling I need you
TTITLE12=Raphael Haslinger - Heimat
TTITLE13=Oswald Sattler and Jantje Smit - Ich zeig' dir die Berge
TTITLE14=Diana - Ola La
TTITLE15=Marianne Cathomen - Hey Baby küss mich noch mal
EXTD=
EXTT0=
EXTT1=
EXTT2=
EXTT3=
EXTT4=
EXTT5=
EXTT6=
EXTT7=
EXTT8=
EXTT9=
EXTT10=
EXTT11=
EXTT12=
EXTT13=
EXTT14=
EXTT15=
PLAYORDER=
